<svg id="Bxn.li" xmlns="http://www.w3.org/2000/svg" viewBox="0 0 453.5 266.53"><defs><style>.cls-1{fill:#2196f3;}</style></defs><title>bxnli-logo</title><g id="_.li" data-name=".li"><path class="cls-1" d="M263.23,196.06l-1.07-.17h-.89c-.57.15-.57.15-.95.23l-.5.16-.48.15c-7.06,2.24-10.79,7.19-10.79,14.32v1.63l.08.35c2.08,9.21,7.32,11.14,11.35,11.14,5,0,11.79-2.52,15.36-14.56l.13-.45v-.47C275.47,203.26,270.05,198.09,263.23,196.06Z"/><path class="cls-1" d="M394.74,152.31l.48.1.49,0c3.27-.32,5.3-.8,6.64-1.59,7.94-3.19,9.62-8.65,9.62-12.69v-.23l0-.23c-1.12-7.93-6.22-8.78-8.36-8.78a16.87,16.87,0,0,0-4.33.51c-9.64,2.18-14.53,6.42-14.53,12.61C384.72,145.06,386,150.53,394.74,152.31Z"/><path class="cls-1" d="M445.71,169.72l-.21,0h-3.21a3.84,3.84,0,0,0-2,.55l-.38.23a3.94,3.94,0,0,0-1,.83c-4.59,5.23-8.92,9.8-12.9,13.59-2.18,1.92-4,3.52-5.94,5.13-17.7,15.86-31.43,23.9-40.83,23.9a5.74,5.74,0,0,1-2.41-.35v0a29.41,29.41,0,0,1,4.68-15.23,50.64,50.64,0,0,0,8.66-17.52l.16-.49v-2.89c0-2.11-.77-7.19-7.9-8.67l-.33-.06h-1.07a12.08,12.08,0,0,0-6.38,1.65,29.27,29.27,0,0,0-6.12,5.78c-3.53,3.77-9.49,9.45-17.73,16.92a28.17,28.17,0,0,1-6,4.15c-9,4.65-16,7.16-20.73,7.46h-4.21c-4.09,0-8.05-1.81-12.09-5.52-5.08-8-5.85-11.65-5.85-13.1v-1c.58-2.3,1.46-3.7,3.71-6.51l.22-.22.17-.26c16.31-24.71,27.51-44.38,33.3-58.45,15-36.13,22.36-59.78,22.36-72.32v-.34c0-7.17-3.79-10.39-7-11.82l-.63-.28h-1.8c-5.46,0-10.4,2.5-14.69,7.45l-.24.28-.17.32a72.83,72.83,0,0,1-3.78,6.49,10.18,10.18,0,0,1-.92,1.16c-1.61,1.78-4.31,6.21-10.85,17.3-9,15.33-22.07,47.14-25.07,56.25-1,2.3-4.8,12.45-6.11,16.5-1.05,3-8.35,27.51-8.35,40.82v.15l0,.15a75.68,75.68,0,0,0,1.49,8.92l0,.12,0,.12c6.07,20.07,18.47,30.25,36.88,30.25,13,0,26.18-4.64,39.05-13.8a33.86,33.86,0,0,0-.6,5.91c0,11.94,6.94,18.52,19.53,18.52,15.13,0,32.91-9.53,54.37-29.15,3.42-2.83,7-6.07,11.47-10.52,8-8.08,9.07-11.16,9.07-13.29v-.68C453.5,173.44,450.66,170.39,445.71,169.72ZM307.08,143.54c8.74-30.38,34.17-77.55,33.79-76.31-12.25,40.14-14.14,44.59-36.42,84.85C304.31,152.34,305.78,148.06,307.08,143.54Z"/></g><path id="B" class="cls-1" d="M190.5,133.28h0l0,0C255.17,111,247.6,12.77,188.17,1.11S39.62,71.61,0,133.25l.09,0H0c39.62,61.64,128.75,143.79,188.17,132.13S255.17,155.53,190.5,133.28ZM83.77,57.77c33.11-27.65,69.91-47,98.78-41.36C200.88,20,213.62,32.92,220,49,219.78,48.73,182.53,2.65,83.77,57.77Z"/></svg>